<?xml version="1.0" encoding="utf-8"?>
<!-- Generator: Adobe Illustrator 20.1.0, SVG Export Plug-In . SVG Version: 6.00 Build 0)  -->
<svg version="1.2" baseProfile="tiny" id="Layer_1" xmlns="http://www.w3.org/2000/svg" xmlns:xlink="http://www.w3.org/1999/xlink"
	 x="0px" y="0px" viewBox="0 0 24 24" xml:space="preserve">
<g>
	<path fill="#FFFFFF" d="M4.1,9.3h3.4v10.9H4.1V9.3z M5.8,3.9c1.1,0,2,0.9,2,2c0,1.1-0.9,2-2,2c-1.1,0-2-0.9-2-2
		C3.9,4.8,4.7,3.9,5.8,3.9"/>
	<path fill="#FFFFFF" d="M9.6,9.3h3.2v1.5h0C13.4,9.9,14.5,9,16.1,9c3.4,0,4,2.2,4,5.2v6h-3.4v-5.3c0-1.3,0-2.9-1.8-2.9
		c-1.8,0-2,1.4-2,2.8v5.4H9.6V9.3z"/>
</g>
</svg>
